<svg width="18" height="21" viewBox="0 0 18 21" fill="none" xmlns="http://www.w3.org/2000/svg">
<g id="Icon/Basic/Instagram/16px" clip-path="url(#clip0_995_35)">
<path id="Vector" d="M17.0046 5.9694C16.9669 4.8946 16.8287 4.15568 16.6308 3.5154C16.4266 2.83575 16.1124 2.22727 15.7007 1.72143C15.2985 1.20773 14.8115 0.808553 14.2774 0.555713C13.7653 0.306731 13.1809 0.132923 12.3263 0.0855346C11.4653 0.034133 11.192 0.0222473 9.0083 0.0222473C6.82463 0.0222473 6.5513 0.034133 5.69352 0.0815213C4.83892 0.12891 4.2514 0.302872 3.74242 0.5517C3.20191 0.808553 2.71809 1.20371 2.31589 1.72143C1.90744 2.22727 1.59017 2.83977 1.38901 3.51154C1.19104 4.15568 1.05284 4.89058 1.01516 5.96539C0.974294 7.04822 0.964844 7.39197 0.964844 10.1383C0.964844 12.8847 0.974294 13.2285 1.01197 14.3073C1.04965 15.3821 1.18797 16.121 1.38594 16.7613C1.59017 17.4409 1.90744 18.0494 2.31589 18.5552C2.71809 19.0689 3.2051 19.4681 3.73923 19.721C4.2514 19.9699 4.83573 20.1437 5.69045 20.1911C6.54811 20.2387 6.82156 20.2504 9.00523 20.2504C11.1889 20.2504 11.4622 20.2387 12.32 20.1911C13.1746 20.1437 13.7621 19.9699 14.2711 19.721C15.352 19.1954 16.2066 18.1206 16.6245 16.7613C16.8224 16.1171 16.9607 15.3821 16.9984 14.3073C17.036 13.2285 17.0455 12.8847 17.0455 10.1383C17.0455 7.39197 17.0423 7.04822 17.0046 5.9694ZM15.5562 14.2282C15.5216 15.2161 15.3897 15.7496 15.2797 16.1052C15.0095 16.9865 14.4534 17.6859 13.7527 18.0258C13.4699 18.1641 13.0427 18.33 12.2602 18.3734C11.4119 18.4209 11.1575 18.4327 9.01149 18.4327C6.8655 18.4327 6.60788 18.4209 5.76262 18.3734C4.97712 18.33 4.55295 18.1641 4.27018 18.0258C3.92149 17.8637 3.6041 17.6069 3.34649 17.271C3.07942 16.943 2.87519 16.5478 2.74632 16.1093C2.63635 15.7536 2.50441 15.2161 2.46992 14.2322C2.43212 13.1653 2.42279 12.8452 2.42279 10.1462C2.42279 7.44724 2.43212 7.12324 2.46992 6.06032C2.50441 5.07242 2.63635 4.53895 2.74632 4.18331C2.87519 3.74462 3.07942 3.3456 3.34968 3.02145C3.61036 2.68556 3.92456 2.42871 4.27337 2.26678C4.55615 2.12848 4.9835 1.96254 5.76581 1.91901C6.61414 1.87163 6.86869 1.85974 9.01456 1.85974C11.1637 1.85974 11.4182 1.87163 12.2634 1.91901C13.0489 1.96254 13.4731 2.12848 13.7559 2.26678C14.1046 2.42871 14.4219 2.68556 14.6796 3.02145C14.9466 3.34946 15.1509 3.74462 15.2797 4.18331C15.3897 4.53895 15.5216 5.07628 15.5562 6.06032C15.5939 7.12725 15.6034 7.44724 15.6034 10.1462C15.6034 12.8452 15.5939 13.1613 15.5562 14.2282Z" fill="white"/>
<path id="Vector_2" d="M9.00865 4.94199C6.72765 4.94199 4.87695 7.26941 4.87695 10.1383C4.87695 13.0073 6.72765 15.3347 9.00865 15.3347C11.2898 15.3347 13.1403 13.0073 13.1403 10.1383C13.1403 7.26941 11.2898 4.94199 9.00865 4.94199ZM9.00865 13.5091C7.52885 13.5091 6.32852 11.9996 6.32852 10.1383C6.32852 8.27707 7.52885 6.76759 9.00865 6.76759C10.4886 6.76759 11.6888 8.27707 11.6888 10.1383C11.6888 11.9996 10.4886 13.5091 9.00865 13.5091V13.5091Z" fill="white"/>
<path id="Vector_3" d="M14.2691 4.73655C14.2691 5.40647 13.8372 5.94966 13.3044 5.94966C12.7717 5.94966 12.3398 5.40647 12.3398 4.73655C12.3398 4.06647 12.7717 3.52344 13.3044 3.52344C13.8372 3.52344 14.2691 4.06647 14.2691 4.73655V4.73655Z" fill="white"/>
</g>
<defs>
<clipPath id="clip0_995_35">
<rect width="16.0838" height="20.2282" fill="white" transform="translate(0.9375 0.0222473)"/>
</clipPath>
</defs>
</svg>
