<svg width="17" height="18" viewBox="0 0 17 18" fill="none" xmlns="http://www.w3.org/2000/svg">
<g id="Group">
<g id="Group_2">
<path id="Vector" d="M16.2205 2.86434C15.6224 3.19431 14.9851 3.41303 14.3206 3.51923C15.0042 3.00594 15.5259 2.19934 15.7711 1.22712C15.1338 1.70501 14.4302 2.04257 13.6803 2.23095C13.0751 1.42055 12.2126 0.91864 11.2717 0.91864C9.4462 0.91864 7.97655 2.78217 7.97655 5.06669C7.97655 5.3954 7.99867 5.71146 8.05295 6.01236C5.31167 5.84421 2.88604 4.19182 1.25655 1.67467C0.972069 2.29542 0.8052 3.00594 0.8052 3.77082C0.8052 5.20702 1.39326 6.48014 2.26983 7.2172C1.74007 7.20456 1.22036 7.01113 0.780069 6.70644C0.780069 6.71908 0.780069 6.73552 0.780069 6.75195C0.780069 8.76719 1.92302 10.4411 3.42183 10.8267C3.15343 10.919 2.86091 10.9632 2.55733 10.9632C2.34623 10.9632 2.13312 10.948 1.93307 10.8924C2.3603 12.5347 3.57261 13.7421 5.01412 13.7813C3.89228 14.885 2.46786 15.55 0.925829 15.55C0.65542 15.55 0.39607 15.5348 0.136719 15.4931C1.59733 16.6777 3.32834 17.3541 5.19506 17.3541C11.2627 17.3541 14.5799 11.0328 14.5799 5.55343C14.5799 5.37011 14.5749 5.19312 14.5679 5.01738C15.2223 4.43329 15.7722 3.70381 16.2205 2.86434Z" fill="white"/>
</g>
</g>
</svg>
